<?xml version="1.0" standalone="no"?>
<!DOCTYPE svg PUBLIC "-//W3C//DTD SVG 20010904//EN"
 "http://www.w3.org/TR/2001/REC-SVG-20010904/DTD/svg10.dtd">
<svg version="1.0" xmlns="http://www.w3.org/2000/svg"
 width="700.000000pt" height="700.000000pt" viewBox="0 0 700.000000 700.000000"
 preserveAspectRatio="xMidYMid meet">
<metadata>
Created by potrace 1.14, written by Peter Selinger 2001-2017
</metadata>
<g transform="translate(0.000000,700.000000) scale(0.100000,-0.100000)"
fill="#000000" stroke="none">
<path d="M3278 6995 c-1 -1 -42 -5 -89 -9 -47 -4 -95 -8 -105 -10 -10 -2 -48
-7 -84 -12 -36 -4 -67 -8 -70 -9 -3 -1 -25 -5 -50 -9 -25 -4 -101 -21 -170
-38 -69 -16 -135 -31 -147 -34 -40 -8 -263 -84 -364 -125 -138 -54 -391 -179
-494 -244 -58 -35 -259 -169 -274 -181 -9 -7 -52 -41 -96 -75 -340 -264 -650
-624 -875 -1014 -47 -83 -170 -327 -170 -340 0 -3 -9 -24 -20 -48 -30 -65 -95
-243 -120 -332 -12 -44 -26 -91 -31 -105 -7 -22 -22 -83 -35 -145 -47 -235
-54 -277 -71 -465 -15 -165 -8 -592 12 -711 2 -13 6 -46 9 -74 9 -78 22 -152
51 -285 21 -96 91 -339 114 -395 5 -11 25 -65 46 -120 63 -166 249 -531 312
-610 4 -6 34 -49 65 -95 170 -255 433 -535 708 -755 92 -74 370 -265 386 -265
4 0 15 -6 23 -14 29 -26 335 -175 471 -229 271 -108 576 -186 870 -222 250
-31 690 -26 907 9 21 4 54 9 73 11 19 3 46 7 60 10 14 3 41 8 60 11 108 19
308 73 450 121 191 65 472 192 614 278 32 19 62 35 67 35 5 0 9 5 9 10 0 6 5
10 10 10 15 0 220 141 330 227 152 118 324 280 450 422 36 41 70 79 76 85 6 6
48 61 94 121 152 200 276 403 388 638 29 59 52 110 52 113 0 3 8 24 19 47 53
118 147 417 177 562 17 81 54 301 59 350 4 33 9 71 11 85 9 47 11 555 3 620
-4 36 -10 94 -14 130 -3 36 -8 72 -10 80 -2 8 -7 35 -10 60 -17 129 -80 384
-136 552 -264 787 -804 1458 -1519 1890 -275 166 -612 307 -913 384 -109 27
-272 62 -327 69 -19 3 -46 7 -60 10 -13 2 -52 7 -86 11 -33 3 -74 8 -90 10
-32 5 -540 14 -546 9z"/>
</g>
</svg>
