<svg id="Lag_1" data-name="Lag 1" xmlns="http://www.w3.org/2000/svg" viewBox="0 0 1002 1002"><defs><style>.cls-1{fill:#001d3d;}.cls-1,.cls-2,.cls-3{stroke:#001d3d;stroke-miterlimit:10;}.cls-1,.cls-3{stroke-width:2px;}.cls-2{fill:#fff;stroke-width:6px;}.cls-3{fill:#4ca1fd;}</style></defs><circle class="cls-1" cx="501" cy="501" r="500"/><ellipse class="cls-2" cx="500.75" cy="501.06" rx="430.41" ry="434.55"/><path class="cls-3" d="M876.61,710.09C802.89,842.15,662.8,931.31,502.12,931.31c-182.2,0-337.89-114.61-400.44-276.39,20.41,2.17,40.81,1.4,59.77-5.53,35.44-13,54.17-43.75,63.48-72.87S237.58,516.75,256,490c22.32-32.37,64.19-54.74,107.74-69.34,67.1-22.51,142.86-29.55,211.59-15.78s129.45,49.16,160.19,98c8.3,13.16,13.93,30,2.29,42.31-7.16,7.56-19,11.35-30.05,15.1-51.52,17.56-99,42.86-138.71,74-21,16.43-40.88,36.32-42.16,58.83-1.48,25.44,22.17,47.74,51.44,58.44s63.24,11.89,96.24,11.58c62.13-.59,128.35-7,178.81-36.8A184.67,184.67,0,0,0,876.61,710.09Z" transform="translate(1 0.94)"/></svg>